# Blender 3.6.3
# www.blender.org
mtllib paper.mtl
o Plane
v -0.789758 0.000000 1.000000
v 0.789758 0.000000 1.000000
v -0.789758 0.000000 -1.000000
v 0.601368 0.276812 -0.747802
v 0.051323 0.000000 -1.000000
v 0.557434 0.228718 -0.791619
v 0.106101 0.003475 -0.996834
v 0.165563 0.013793 -0.987433
v 0.227902 0.030642 -0.972082
v 0.291224 0.053510 -0.951248
v 0.353606 0.081701 -0.925564
v 0.413151 0.114359 -0.895809
v 0.468051 0.150492 -0.862889
v 0.516637 0.189002 -0.827804
v 0.634099 0.228718 -0.717287
v 0.789758 0.000000 -0.284040
v 0.661129 0.189002 -0.687710
v 0.687338 0.150492 -0.650277
v 0.711929 0.114359 -0.606126
v 0.734155 0.081701 -0.556597
v 0.753341 0.053510 -0.503197
v 0.768904 0.030642 -0.447546
v 0.780371 0.013793 -0.391338
v 0.787393 0.003475 -0.336278
v 0.789758 0.000000 0.883269
v 0.789758 0.000000 0.766538
v 0.789758 0.000000 0.649807
v 0.789758 0.000000 0.533076
v 0.789758 0.000000 0.416345
v 0.789758 0.000000 0.299614
v 0.789758 0.000000 0.182883
v 0.789758 0.000000 0.066153
v 0.789758 0.000000 -0.050578
v 0.789758 0.000000 -0.167309
vn -0.6954 0.0460 0.7172
vn -0.6955 0.0421 0.7173
vn -0.6960 -0.0182 0.7178
vn -0.0132 0.9998 0.0136
vn -0.0188 0.9996 0.0194
vn -0.1010 0.9894 0.1042
vn -0.0908 0.9915 0.0937
vn -0.2281 0.9448 0.2353
vn -0.2194 0.9491 0.2262
vn -0.3463 0.8675 0.3571
vn -0.3390 0.8734 0.3496
vn -0.4504 0.7624 0.4646
vn -0.4446 0.7694 0.4586
vn -0.5373 0.6358 0.5542
vn -0.5329 0.6434 0.5496
vn -0.6054 0.4936 0.6244
vn -0.6022 0.5016 0.6211
vn -0.6543 0.3413 0.6748
vn -0.6522 0.3494 0.6727
vn -0.6843 0.1832 0.7058
vn -0.6833 0.1911 0.7047
vn -0.0000 1.0000 -0.0000
vt 0.951463 1.000000
vt 1.000000 0.962834
vt 1.000000 1.000000
vt 0.532493 1.000000
vt 1.000000 0.642020
vt 0.998503 0.668139
vt 0.567173 0.998417
vt 0.994057 0.695669
vt 0.604819 0.993716
vt 0.986797 0.723773
vt 0.644286 0.986041
vt 0.976944 0.751598
vt 0.684376 0.975624
vt 1.016727 0.837246
vt 0.775799 1.021729
vt 1.009579 0.867601
vt 0.820421 1.012443
vt 1.004312 0.899295
vt 0.865480 1.005601
vt 1.001086 0.931364
vt 0.909608 1.001411
vt 0.000000 0.000000
vt 1.000000 0.000000
vt 1.000000 0.058365
vt 1.000000 0.116731
vt 1.000000 0.175096
vt 1.000000 0.233462
vt 1.000000 0.291827
vt 1.000000 0.350193
vt 1.000000 0.408558
vt 1.000000 0.466924
vt 1.000000 0.525289
vt 1.000000 0.583655
vt 0.000000 1.000000
s 1
f 6/1/1 15/2/2 4/3/3
f 5/4/4 16/5/5 24/6/6 7/7/7
f 7/7/7 24/6/6 23/8/8 8/9/9
f 8/9/9 23/8/8 22/10/10 9/11/11
f 9/11/11 22/10/10 21/12/12 10/13/13
f 10/13/13 21/12/12 20/14/14 11/15/15
f 11/15/15 20/14/14 19/16/16 12/17/17
f 12/17/17 19/16/16 18/18/18 13/19/19
f 13/19/19 18/18/18 17/20/20 14/21/21
f 14/21/21 17/20/20 15/2/2 6/1/1
f 1/22/22 2/23/22 25/24/22 26/25/22 27/26/22 28/27/22 29/28/22 30/29/22 31/30/22 32/31/22 33/32/22 34/33/22 16/5/5 5/4/4 3/34/22
